<svg width="745" height="313" viewBox="0 0 745 313" fill="none" xmlns="http://www.w3.org/2000/svg">
<path d="M611.892 0.156222H580.392H133.892C127.892 -0.643778 124.726 1.82289 123.892 3.15622L108.392 20.6562C103.992 27.0562 94.5591 28.3229 90.3924 28.1562C77.2257 28.3229 50.1924 28.4562 47.3924 27.6562C44.5924 26.8562 42.2257 27.3229 41.3924 27.6562C-5.1076 93.1562 -0.107602 132.656 0.392398 177.656C0.792398 213.656 23.5591 256.99 34.8924 274.156C39.2924 283.756 46.3924 284.823 49.3924 284.156L97.8924 285.656C101.392 286.49 110.092 290.656 116.892 300.656C123.692 310.656 128.059 312.49 129.392 312.156H612.892C618.892 312.556 621.059 310.99 621.392 310.156L628.392 301.156C634.392 287.956 650.892 284.656 658.392 284.656C664.726 284.49 680.392 284.056 692.392 283.656C704.392 283.256 707.392 280.156 707.392 278.656L725.392 245.156C746.592 215.556 746.226 155.49 743.392 129.156C743.792 96.3562 719.892 51.1562 707.892 32.6562C706.692 28.6562 702.726 27.6562 700.892 27.6562H652.892C638.892 28.6562 627.892 16.1562 624.892 8.15622C622.492 1.75622 615.226 0.156222 611.892 0.156222Z" fill="#1d1d22"/>
</svg>
